# xmcd
#
# Track frame offsets: 
#        150
#        36117
#        69912
#        94728
#        118008
#        140290
#        158274
#        176227
#        202563
#        224666
#        247004
#        262916
#
# Disc length: 3837 seconds
#
# Revision: 3
# Processed by: cddbd v1.5.2PL0 Copyright (c) Steve Scherf et al.
# Submitted via: ExactAudioCopyFreeDBPlugin 1.0
#
DISCID=9f0efb0c
DTITLE=Chris Rea - 2005 - Blue Guitars Cd 9 [Celtic and Irish Blues]
DYEAR=2005
DGENRE=Blues
TTITLE0=Celtic Blue
TTITLE1=Too Far From Home
TTITLE2='Til The Morning Sun Shines On My Love And Me
TTITLE3=Lucky Day
TTITLE4=What She Really Is
TTITLE5=Wishing Well
TTITLE6=Irish Blues
TTITLE7=No More Sorrow
TTITLE8=While I Remain
TTITLE9=Last Drink
TTITLE10='Til I Find My True Love's Name
TTITLE11=Big White Door
EXTD=
EXTT0=
EXTT1=
EXTT2=
EXTT3=
EXTT4=
EXTT5=
EXTT6=
EXTT7=
EXTT8=
EXTT9=
EXTT10=
EXTT11=
PLAYORDER=
